<svg xmlns="http://www.w3.org/2000/svg" xmlns:xlink="http://www.w3.org/1999/xlink" viewBox="0 0 132.52 64.78"><defs><style>.cls-1{fill:#f5f7ea;}.cls-2{fill:url(#linear-gradient);}</style><linearGradient id="linear-gradient" x1="67.86" y1="0.12" x2="132.52" y2="64.78" gradientUnits="userSpaceOnUse"><stop offset="0" stop-color="#ffa000"/><stop offset="1" stop-color="#ff0042"/></linearGradient></defs><g id="Layer_2" data-name="Layer 2"><g id="DESIGN_X" data-name="DESIGN X"><g id="DESIGN"><polygon class="cls-1" points="37.72 9.17 37.72 11.14 47.25 11.14 47.25 20.31 37.72 20.31 37.72 22.29 47.25 22.29 47.25 28.39 44.18 31.45 21.7 31.45 18.66 28.41 18.66 3.01 21.67 0 44.25 0 47.25 3 47.25 9.17 37.72 9.17"/><polygon class="cls-1" points="28.19 55.61 37.72 55.61 37.72 53.64 30.05 53.64 30.05 48.16 33.75 44.47 47.25 44.47 47.25 61.78 44.25 64.78 21.67 64.78 18.66 61.77 18.66 36.37 21.7 33.33 44.18 33.33 47.25 36.39 47.25 42.49 32.78 42.49 28.19 47.09 28.19 55.61"/><path class="cls-1" d="M13.82,0H0V31.45H13.74l3-3V3ZM9.34,22.29H7.44V9.17h1.9Z"/><polygon class="cls-1" points="14.81 42.49 14.81 55.61 16.79 55.61 16.79 61.81 13.82 64.78 0 64.78 0 55.61 1.98 55.61 1.98 42.49 0 42.49 0 33.33 13.74 33.33 16.79 36.37 16.79 42.49 14.81 42.49"/><polygon class="cls-1" points="60.31 9.17 60.31 11.14 65.9 11.14 65.9 31.45 52.14 31.45 49.12 28.43 49.12 22.29 54.71 22.29 54.71 20.31 49.12 20.31 49.12 2.99 52.1 0 65.9 0 65.9 9.17 60.31 9.17"/><polygon class="cls-1" points="65.9 33.33 65.9 64.78 58.44 64.78 56.58 58.5 56.58 64.78 52.1 64.78 49.12 61.79 49.12 36.35 52.14 33.33 56.58 33.33 58.44 39.6 58.44 33.33 65.9 33.33"/></g><polygon id="X" class="cls-2" points="115.98 64.78 100.42 49.22 84.87 64.78 67.86 64.78 67.86 48.71 83.89 32.69 67.86 16.66 67.86 0.12 84.4 0.12 100.42 16.15 116.45 0.12 132.52 0.12 132.52 17.13 116.96 32.69 132.52 48.24 132.52 64.78 115.98 64.78"/></g></g></svg>